<svg width="1973" height="600" viewBox="0 0 1973 600" fill="none" xmlns="http://www.w3.org/2000/svg">
<path d="M143.023 240.543L123.776 243.952C122.971 241.49 121.692 239.146 119.94 236.92C118.236 234.695 115.916 232.872 112.98 231.452C110.045 230.031 106.375 229.321 101.972 229.321C95.9583 229.321 90.9394 230.67 86.9148 233.369C82.8902 236.021 80.8778 239.454 80.8778 243.668C80.8778 247.313 82.2273 250.249 84.9261 252.474C87.625 254.7 91.9811 256.523 97.9943 257.943L115.324 261.92C125.362 264.241 132.843 267.815 137.767 272.645C142.691 277.474 145.153 283.748 145.153 291.466C145.153 298 143.259 303.824 139.472 308.938C135.731 314.004 130.499 317.981 123.776 320.869C117.099 323.758 109.358 325.202 100.551 325.202C88.3352 325.202 78.3684 322.598 70.6506 317.389C62.9328 312.134 58.1979 304.676 56.446 295.017L76.9716 291.892C78.25 297.242 80.8778 301.291 84.8551 304.037C88.8324 306.736 94.017 308.085 100.409 308.085C107.369 308.085 112.933 306.641 117.099 303.753C121.266 300.817 123.349 297.242 123.349 293.028C123.349 289.619 122.071 286.755 119.514 284.435C117.005 282.115 113.146 280.363 107.938 279.179L89.4716 275.131C79.2917 272.811 71.7633 269.117 66.8864 264.051C62.0568 258.985 59.642 252.569 59.642 244.804C59.642 238.365 61.4413 232.73 65.0398 227.901C68.6383 223.071 73.6098 219.307 79.9545 216.608C86.2992 213.862 93.5672 212.489 101.759 212.489C113.548 212.489 122.829 215.045 129.599 220.159C136.37 225.225 140.845 232.02 143.023 240.543ZM215.519 325.202C204.771 325.202 195.514 322.905 187.749 318.312C180.031 313.672 174.066 307.162 169.852 298.781C165.685 290.353 163.602 280.481 163.602 269.165C163.602 257.991 165.685 248.142 169.852 239.619C174.066 231.097 179.937 224.444 187.465 219.662C195.041 214.88 203.895 212.489 214.028 212.489C220.183 212.489 226.149 213.507 231.925 215.543C237.702 217.579 242.887 220.775 247.479 225.131C252.072 229.487 255.694 235.145 258.346 242.105C260.997 249.018 262.323 257.422 262.323 267.318V274.847H175.604V258.938H241.513C241.513 253.35 240.377 248.402 238.104 244.094C235.832 239.738 232.636 236.305 228.516 233.795C224.444 231.286 219.662 230.031 214.17 230.031C208.204 230.031 202.996 231.499 198.545 234.435C194.141 237.323 190.732 241.111 188.317 245.798C185.95 250.438 184.766 255.481 184.766 260.926V273.355C184.766 280.647 186.045 286.849 188.602 291.963C191.206 297.077 194.828 300.983 199.468 303.682C204.108 306.333 209.53 307.659 215.732 307.659C219.757 307.659 223.426 307.091 226.741 305.955C230.055 304.771 232.92 303.019 235.335 300.699C237.749 298.379 239.596 295.514 240.874 292.105L260.974 295.727C259.364 301.646 256.476 306.83 252.309 311.281C248.19 315.685 243.005 319.117 236.755 321.58C230.552 323.994 223.474 325.202 215.519 325.202ZM444.674 323V213.909H465.2V231.239H466.336C468.325 225.367 471.828 220.751 476.847 217.389C481.914 213.98 487.643 212.276 494.035 212.276C495.361 212.276 496.923 212.323 498.722 212.418C500.569 212.512 502.013 212.631 503.055 212.773V233.085C502.202 232.848 500.687 232.588 498.509 232.304C496.331 231.973 494.153 231.807 491.975 231.807C486.956 231.807 482.482 232.872 478.552 235.003C474.669 237.086 471.592 239.998 469.319 243.739C467.046 247.432 465.91 251.646 465.91 256.381V323H444.674ZM563.477 325.202C552.919 325.202 543.828 322.811 536.205 318.028C528.629 313.199 522.805 306.546 518.733 298.071C514.661 289.596 512.625 279.889 512.625 268.952C512.625 257.872 514.708 248.095 518.875 239.619C523.042 231.097 528.913 224.444 536.489 219.662C544.064 214.88 552.99 212.489 563.264 212.489C571.55 212.489 578.937 214.027 585.423 217.105C591.91 220.135 597.142 224.397 601.119 229.889C605.144 235.382 607.535 241.797 608.293 249.136H587.625C586.489 244.023 583.884 239.619 579.812 235.926C575.788 232.233 570.39 230.386 563.619 230.386C557.701 230.386 552.516 231.949 548.065 235.074C543.662 238.152 540.229 242.555 537.767 248.284C535.305 253.966 534.074 260.689 534.074 268.455C534.074 276.409 535.281 283.275 537.696 289.051C540.111 294.828 543.52 299.302 547.923 302.474C552.374 305.647 557.606 307.233 563.619 307.233C567.644 307.233 571.29 306.499 574.557 305.031C577.871 303.516 580.641 301.362 582.866 298.568C585.139 295.775 586.725 292.413 587.625 288.483H608.293C607.535 295.538 605.239 301.835 601.403 307.375C597.568 312.915 592.431 317.271 585.991 320.443C579.599 323.616 572.095 325.202 563.477 325.202ZM652.238 258.227V323H631.002V177.545H651.954V231.665H653.303C655.86 225.794 659.766 221.13 665.022 217.673C670.278 214.217 677.143 212.489 685.619 212.489C693.1 212.489 699.634 214.027 705.221 217.105C710.855 220.183 715.211 224.776 718.289 230.884C721.414 236.944 722.977 244.52 722.977 253.611V323H701.741V256.168C701.741 248.166 699.681 241.963 695.562 237.56C691.442 233.109 685.713 230.884 678.374 230.884C673.355 230.884 668.857 231.949 664.88 234.08C660.95 236.21 657.849 239.335 655.576 243.455C653.351 247.527 652.238 252.451 652.238 258.227Z" fill="#00BFFF"/>
<path d="M766.371 177.545V323H753.729V177.545H766.371ZM799.965 323V213.909H812.678V323H799.965ZM806.428 195.159C803.824 195.159 801.599 194.283 799.752 192.531C797.906 190.732 796.982 188.578 796.982 186.068C796.982 183.559 797.906 181.428 799.752 179.676C801.599 177.877 803.824 176.977 806.428 176.977C809.032 176.977 811.258 177.877 813.104 179.676C814.951 181.428 815.874 183.559 815.874 186.068C815.874 188.578 814.951 190.732 813.104 192.531C811.258 194.283 809.032 195.159 806.428 195.159ZM889.081 213.909V224.918H837.021V213.909H889.081ZM853.286 187.773H865.999V294.52C865.999 299.065 866.78 302.64 868.342 305.244C869.905 307.801 871.941 309.624 874.45 310.713C876.96 311.755 879.635 312.276 882.476 312.276C884.133 312.276 885.554 312.181 886.737 311.991C887.921 311.755 888.963 311.518 889.862 311.281L892.561 322.716C891.33 323.189 889.815 323.616 888.016 323.994C886.216 324.42 883.991 324.634 881.339 324.634C876.699 324.634 872.225 323.616 867.916 321.58C863.655 319.544 860.151 316.513 857.405 312.489C854.659 308.464 853.286 303.469 853.286 297.503V187.773ZM960.725 325.273C950.545 325.273 941.738 322.905 934.305 318.17C926.871 313.388 921.118 306.783 917.046 298.355C913.022 289.88 911.009 280.126 911.009 269.094C911.009 258.109 913.022 248.355 917.046 239.832C921.118 231.262 926.729 224.562 933.879 219.733C941.076 214.856 949.385 212.418 958.808 212.418C964.726 212.418 970.432 213.507 975.924 215.685C981.416 217.815 986.341 221.106 990.697 225.557C995.1 229.96 998.58 235.524 1001.14 242.247C1003.69 248.923 1004.97 256.83 1004.97 265.969V272.219H919.745V261.068H992.046C992.046 254.061 990.626 247.763 987.785 242.176C984.991 236.542 981.085 232.091 976.066 228.824C971.094 225.557 965.342 223.923 958.808 223.923C951.895 223.923 945.81 225.77 940.555 229.463C935.299 233.156 931.18 238.033 928.197 244.094C925.261 250.154 923.77 256.783 923.722 263.98V270.656C923.722 279.321 925.214 286.897 928.197 293.384C931.227 299.823 935.512 304.818 941.052 308.369C946.592 311.92 953.149 313.696 960.725 313.696C965.886 313.696 970.408 312.891 974.29 311.281C978.22 309.671 981.511 307.517 984.163 304.818C986.862 302.072 988.897 299.065 990.271 295.798L1002.27 299.705C1000.62 304.297 997.894 308.535 994.106 312.418C990.365 316.3 985.678 319.425 980.043 321.793C974.456 324.113 968.017 325.273 960.725 325.273Z" fill="white" fill-opacity="0.7"/>
<circle cx="345" cy="263" r="60" fill="#00BFFF"/>
<rect x="355.836" y="292.89" width="16.2575" height="65.0301" transform="rotate(-62.4061 355.836 292.89)" fill="#00BFFF"/>
<circle cx="345.5" cy="262.5" r="43.5" fill="#BBBBBB"/>
<circle cx="345.5" cy="262.5" r="43.5" fill="url(#paint0_radial_20_2)" fill-opacity="0.59"/>
<path d="M64.0455 378.182V448H53.8523V378.182H64.0455ZM77.7585 448V395.636H87.9517V448H77.7585ZM82.9062 387.557C81.1335 387.557 79.6108 386.966 78.3381 385.784C77.0881 384.58 76.4631 383.148 76.4631 381.489C76.4631 379.807 77.0881 378.375 78.3381 377.193C79.6108 375.989 81.1335 375.386 82.9062 375.386C84.679 375.386 86.1903 375.989 87.4403 377.193C88.7131 378.375 89.3494 379.807 89.3494 381.489C89.3494 383.148 88.7131 384.58 87.4403 385.784C86.1903 386.966 84.679 387.557 82.9062 387.557ZM123.619 468.727C119.46 468.727 115.881 468.182 112.881 467.091C109.903 466 107.472 464.557 105.585 462.761C103.699 460.966 102.29 459 101.358 456.864L110.119 453.25C110.733 454.25 111.551 455.307 112.574 456.42C113.619 457.557 115.028 458.523 116.801 459.318C118.597 460.114 120.903 460.511 123.722 460.511C127.585 460.511 130.778 459.568 133.301 457.682C135.824 455.818 137.085 452.841 137.085 448.75V438.455H136.438C135.824 439.568 134.938 440.807 133.778 442.17C132.642 443.534 131.074 444.716 129.074 445.716C127.074 446.716 124.472 447.216 121.267 447.216C117.131 447.216 113.403 446.25 110.085 444.318C106.79 442.364 104.176 439.489 102.244 435.693C100.335 431.875 99.3807 427.182 99.3807 421.614C99.3807 416.045 100.324 411.273 102.21 407.295C104.119 403.318 106.733 400.273 110.051 398.159C113.369 396.023 117.131 394.955 121.335 394.955C124.585 394.955 127.21 395.5 129.21 396.591C131.21 397.659 132.767 398.909 133.881 400.341C135.017 401.773 135.892 403.034 136.506 404.125H137.256V395.636H147.244V449.159C147.244 453.659 146.199 457.352 144.108 460.239C142.017 463.125 139.188 465.261 135.619 466.648C132.074 468.034 128.074 468.727 123.619 468.727ZM123.517 438.761C126.449 438.761 128.926 438.08 130.949 436.716C132.994 435.33 134.54 433.352 135.585 430.784C136.653 428.193 137.188 425.091 137.188 421.477C137.188 417.955 136.665 414.852 135.619 412.17C134.574 409.489 133.04 407.398 131.017 405.898C128.994 404.375 126.494 403.614 123.517 403.614C120.449 403.614 117.892 404.409 115.847 406C113.801 407.568 112.256 409.705 111.21 412.409C110.188 415.114 109.676 418.136 109.676 421.477C109.676 424.909 110.199 427.92 111.244 430.511C112.29 433.102 113.835 435.125 115.881 436.58C117.949 438.034 120.494 438.761 123.517 438.761ZM171.108 416.909V448H160.915V378.182H170.972V404.159H171.619C172.847 401.341 174.722 399.102 177.244 397.443C179.767 395.784 183.063 394.955 187.131 394.955C190.722 394.955 193.858 395.693 196.54 397.17C199.244 398.648 201.335 400.852 202.812 403.784C204.312 406.693 205.062 410.33 205.062 414.693V448H194.869V415.92C194.869 412.08 193.881 409.102 191.903 406.989C189.926 404.852 187.176 403.784 183.653 403.784C181.244 403.784 179.085 404.295 177.176 405.318C175.29 406.341 173.801 407.841 172.71 409.818C171.642 411.773 171.108 414.136 171.108 416.909ZM243.108 395.636V403.818H214.506V395.636H243.108ZM222.176 383.091H232.369V432.625C232.369 434.602 232.665 436.091 233.256 437.091C233.847 438.068 234.608 438.739 235.54 439.102C236.494 439.443 237.528 439.614 238.642 439.614C239.46 439.614 240.176 439.557 240.79 439.443C241.403 439.33 241.881 439.239 242.222 439.17L244.062 447.591C243.472 447.818 242.631 448.045 241.54 448.273C240.449 448.523 239.085 448.659 237.449 448.682C234.767 448.727 232.267 448.25 229.949 447.25C227.631 446.25 225.756 444.705 224.324 442.614C222.892 440.523 222.176 437.898 222.176 434.739V383.091ZM265.736 448L250.327 395.636H260.861L271.122 434.091H271.634L281.929 395.636H292.463L302.69 433.92H303.202L313.395 395.636H323.929L308.554 448H298.156L287.52 410.193H286.736L276.099 448H265.736ZM354.577 449.057C349.418 449.057 344.974 447.955 341.247 445.75C337.543 443.523 334.679 440.398 332.656 436.375C330.656 432.33 329.656 427.591 329.656 422.159C329.656 416.795 330.656 412.068 332.656 407.977C334.679 403.886 337.497 400.693 341.111 398.398C344.747 396.102 348.997 394.955 353.861 394.955C356.815 394.955 359.679 395.443 362.452 396.42C365.224 397.398 367.713 398.932 369.918 401.023C372.122 403.114 373.861 405.83 375.134 409.17C376.406 412.489 377.043 416.523 377.043 421.273V424.886H335.418V417.25H367.054C367.054 414.568 366.509 412.193 365.418 410.125C364.327 408.034 362.793 406.386 360.815 405.182C358.861 403.977 356.565 403.375 353.929 403.375C351.065 403.375 348.565 404.08 346.429 405.489C344.315 406.875 342.679 408.693 341.52 410.943C340.384 413.17 339.815 415.591 339.815 418.205V424.17C339.815 427.67 340.429 430.648 341.656 433.102C342.906 435.557 344.645 437.432 346.872 438.727C349.099 440 351.702 440.636 354.679 440.636C356.611 440.636 358.372 440.364 359.963 439.818C361.554 439.25 362.929 438.409 364.088 437.295C365.247 436.182 366.134 434.807 366.747 433.17L376.395 434.909C375.622 437.75 374.236 440.239 372.236 442.375C370.259 444.489 367.77 446.136 364.77 447.318C361.793 448.477 358.395 449.057 354.577 449.057ZM388.352 448V395.636H398.545V448H388.352ZM393.5 387.557C391.727 387.557 390.205 386.966 388.932 385.784C387.682 384.58 387.057 383.148 387.057 381.489C387.057 379.807 387.682 378.375 388.932 377.193C390.205 375.989 391.727 375.386 393.5 375.386C395.273 375.386 396.784 375.989 398.034 377.193C399.307 378.375 399.943 379.807 399.943 381.489C399.943 383.148 399.307 384.58 398.034 385.784C396.784 386.966 395.273 387.557 393.5 387.557ZM434.213 468.727C430.054 468.727 426.474 468.182 423.474 467.091C420.497 466 418.065 464.557 416.179 462.761C414.293 460.966 412.884 459 411.952 456.864L420.713 453.25C421.327 454.25 422.145 455.307 423.168 456.42C424.213 457.557 425.622 458.523 427.395 459.318C429.19 460.114 431.497 460.511 434.315 460.511C438.179 460.511 441.372 459.568 443.895 457.682C446.418 455.818 447.679 452.841 447.679 448.75V438.455H447.031C446.418 439.568 445.531 440.807 444.372 442.17C443.236 443.534 441.668 444.716 439.668 445.716C437.668 446.716 435.065 447.216 431.861 447.216C427.724 447.216 423.997 446.25 420.679 444.318C417.384 442.364 414.77 439.489 412.838 435.693C410.929 431.875 409.974 427.182 409.974 421.614C409.974 416.045 410.918 411.273 412.804 407.295C414.713 403.318 417.327 400.273 420.645 398.159C423.963 396.023 427.724 394.955 431.929 394.955C435.179 394.955 437.804 395.5 439.804 396.591C441.804 397.659 443.361 398.909 444.474 400.341C445.611 401.773 446.486 403.034 447.099 404.125H447.849V395.636H457.838V449.159C457.838 453.659 456.793 457.352 454.702 460.239C452.611 463.125 449.781 465.261 446.213 466.648C442.668 468.034 438.668 468.727 434.213 468.727ZM434.111 438.761C437.043 438.761 439.52 438.08 441.543 436.716C443.588 435.33 445.134 433.352 446.179 430.784C447.247 428.193 447.781 425.091 447.781 421.477C447.781 417.955 447.259 414.852 446.213 412.17C445.168 409.489 443.634 407.398 441.611 405.898C439.588 404.375 437.088 403.614 434.111 403.614C431.043 403.614 428.486 404.409 426.44 406C424.395 407.568 422.849 409.705 421.804 412.409C420.781 415.114 420.27 418.136 420.27 421.477C420.27 424.909 420.793 427.92 421.838 430.511C422.884 433.102 424.429 435.125 426.474 436.58C428.543 438.034 431.088 438.761 434.111 438.761ZM481.702 416.909V448H471.509V378.182H481.565V404.159H482.213C483.44 401.341 485.315 399.102 487.838 397.443C490.361 395.784 493.656 394.955 497.724 394.955C501.315 394.955 504.452 395.693 507.134 397.17C509.838 398.648 511.929 400.852 513.406 403.784C514.906 406.693 515.656 410.33 515.656 414.693V448H505.463V415.92C505.463 412.08 504.474 409.102 502.497 406.989C500.52 404.852 497.77 403.784 494.247 403.784C491.838 403.784 489.679 404.295 487.77 405.318C485.884 406.341 484.395 407.841 483.304 409.818C482.236 411.773 481.702 414.136 481.702 416.909ZM553.702 395.636V403.818H525.099V395.636H553.702ZM532.77 383.091H542.963V432.625C542.963 434.602 543.259 436.091 543.849 437.091C544.44 438.068 545.202 438.739 546.134 439.102C547.088 439.443 548.122 439.614 549.236 439.614C550.054 439.614 550.77 439.557 551.384 439.443C551.997 439.33 552.474 439.239 552.815 439.17L554.656 447.591C554.065 447.818 553.224 448.045 552.134 448.273C551.043 448.523 549.679 448.659 548.043 448.682C545.361 448.727 542.861 448.25 540.543 447.25C538.224 446.25 536.349 444.705 534.918 442.614C533.486 440.523 532.77 437.898 532.77 434.739V383.091ZM629.622 408.42L620.384 410.057C619.997 408.875 619.384 407.75 618.543 406.682C617.724 405.614 616.611 404.739 615.202 404.057C613.793 403.375 612.031 403.034 609.918 403.034C607.031 403.034 604.622 403.682 602.69 404.977C600.759 406.25 599.793 407.898 599.793 409.92C599.793 411.67 600.44 413.08 601.736 414.148C603.031 415.216 605.122 416.091 608.009 416.773L616.327 418.682C621.145 419.795 624.736 421.511 627.099 423.83C629.463 426.148 630.645 429.159 630.645 432.864C630.645 436 629.736 438.795 627.918 441.25C626.122 443.682 623.611 445.591 620.384 446.977C617.179 448.364 613.463 449.057 609.236 449.057C603.372 449.057 598.588 447.807 594.884 445.307C591.179 442.784 588.906 439.205 588.065 434.568L597.918 433.068C598.531 435.636 599.793 437.58 601.702 438.898C603.611 440.193 606.099 440.841 609.168 440.841C612.509 440.841 615.179 440.148 617.179 438.761C619.179 437.352 620.179 435.636 620.179 433.614C620.179 431.977 619.565 430.602 618.338 429.489C617.134 428.375 615.281 427.534 612.781 426.966L603.918 425.023C599.031 423.909 595.418 422.136 593.077 419.705C590.759 417.273 589.599 414.193 589.599 410.466C589.599 407.375 590.463 404.67 592.19 402.352C593.918 400.034 596.304 398.227 599.349 396.932C602.395 395.614 605.884 394.955 609.815 394.955C615.474 394.955 619.929 396.182 623.179 398.636C626.429 401.068 628.577 404.33 629.622 408.42ZM664.42 449.057C659.261 449.057 654.818 447.955 651.091 445.75C647.386 443.523 644.523 440.398 642.5 436.375C640.5 432.33 639.5 427.591 639.5 422.159C639.5 416.795 640.5 412.068 642.5 407.977C644.523 403.886 647.341 400.693 650.955 398.398C654.591 396.102 658.841 394.955 663.705 394.955C666.659 394.955 669.523 395.443 672.295 396.42C675.068 397.398 677.557 398.932 679.761 401.023C681.966 403.114 683.705 405.83 684.977 409.17C686.25 412.489 686.886 416.523 686.886 421.273V424.886H645.261V417.25H676.898C676.898 414.568 676.352 412.193 675.261 410.125C674.17 408.034 672.636 406.386 670.659 405.182C668.705 403.977 666.409 403.375 663.773 403.375C660.909 403.375 658.409 404.08 656.273 405.489C654.159 406.875 652.523 408.693 651.364 410.943C650.227 413.17 649.659 415.591 649.659 418.205V424.17C649.659 427.67 650.273 430.648 651.5 433.102C652.75 435.557 654.489 437.432 656.716 438.727C658.943 440 661.545 440.636 664.523 440.636C666.455 440.636 668.216 440.364 669.807 439.818C671.398 439.25 672.773 438.409 673.932 437.295C675.091 436.182 675.977 434.807 676.591 433.17L686.239 434.909C685.466 437.75 684.08 440.239 682.08 442.375C680.102 444.489 677.614 446.136 674.614 447.318C671.636 448.477 668.239 449.057 664.42 449.057ZM698.196 448V395.636H707.98V404.159H708.628C709.719 401.273 711.503 399.023 713.98 397.409C716.457 395.773 719.423 394.955 722.878 394.955C726.378 394.955 729.31 395.773 731.673 397.409C734.06 399.045 735.821 401.295 736.957 404.159H737.503C738.753 401.364 740.741 399.136 743.469 397.477C746.196 395.795 749.446 394.955 753.219 394.955C757.969 394.955 761.844 396.443 764.844 399.42C767.866 402.398 769.378 406.886 769.378 412.886V448H759.185V413.841C759.185 410.295 758.219 407.727 756.287 406.136C754.355 404.545 752.048 403.75 749.366 403.75C746.048 403.75 743.469 404.773 741.628 406.818C739.787 408.841 738.866 411.443 738.866 414.625V448H728.707V413.193C728.707 410.352 727.821 408.068 726.048 406.341C724.276 404.614 721.969 403.75 719.128 403.75C717.196 403.75 715.412 404.261 713.776 405.284C712.162 406.284 710.855 407.682 709.855 409.477C708.878 411.273 708.389 413.352 708.389 415.716V448H698.196ZM798.278 449.159C794.96 449.159 791.96 448.545 789.278 447.318C786.597 446.068 784.472 444.261 782.903 441.898C781.358 439.534 780.585 436.636 780.585 433.205C780.585 430.25 781.153 427.818 782.29 425.909C783.426 424 784.96 422.489 786.892 421.375C788.824 420.261 790.983 419.42 793.369 418.852C795.756 418.284 798.188 417.852 800.665 417.557C803.801 417.193 806.347 416.898 808.301 416.67C810.256 416.42 811.676 416.023 812.562 415.477C813.449 414.932 813.892 414.045 813.892 412.818V412.58C813.892 409.602 813.051 407.295 811.369 405.659C809.71 404.023 807.233 403.205 803.938 403.205C800.506 403.205 797.801 403.966 795.824 405.489C793.869 406.989 792.517 408.659 791.767 410.5L782.188 408.318C783.324 405.136 784.983 402.568 787.165 400.614C789.369 398.636 791.903 397.205 794.767 396.318C797.631 395.409 800.642 394.955 803.801 394.955C805.892 394.955 808.108 395.205 810.449 395.705C812.813 396.182 815.017 397.068 817.062 398.364C819.131 399.659 820.824 401.511 822.142 403.92C823.46 406.307 824.119 409.409 824.119 413.227V448H814.165V440.841H813.756C813.097 442.159 812.108 443.455 810.79 444.727C809.472 446 807.778 447.057 805.71 447.898C803.642 448.739 801.165 449.159 798.278 449.159ZM800.494 440.977C803.313 440.977 805.722 440.42 807.722 439.307C809.744 438.193 811.278 436.739 812.324 434.943C813.392 433.125 813.926 431.182 813.926 429.114V422.364C813.563 422.727 812.858 423.068 811.812 423.386C810.79 423.682 809.619 423.943 808.301 424.17C806.983 424.375 805.699 424.568 804.449 424.75C803.199 424.909 802.153 425.045 801.312 425.159C799.335 425.409 797.528 425.83 795.892 426.42C794.278 427.011 792.983 427.864 792.006 428.977C791.051 430.068 790.574 431.523 790.574 433.341C790.574 435.864 791.506 437.773 793.369 439.068C795.233 440.341 797.608 440.977 800.494 440.977ZM847.889 416.909V448H837.696V395.636H847.48V404.159H848.128C849.332 401.386 851.219 399.159 853.787 397.477C856.378 395.795 859.639 394.955 863.571 394.955C867.139 394.955 870.264 395.705 872.946 397.205C875.628 398.682 877.707 400.886 879.185 403.818C880.662 406.75 881.401 410.375 881.401 414.693V448H871.207V415.92C871.207 412.125 870.219 409.159 868.241 407.023C866.264 404.864 863.548 403.784 860.094 403.784C857.73 403.784 855.628 404.295 853.787 405.318C851.969 406.341 850.526 407.841 849.457 409.818C848.412 411.773 847.889 414.136 847.889 416.909ZM919.514 395.636V403.818H890.912V395.636H919.514ZM898.582 383.091H908.776V432.625C908.776 434.602 909.071 436.091 909.662 437.091C910.253 438.068 911.014 438.739 911.946 439.102C912.901 439.443 913.935 439.614 915.048 439.614C915.866 439.614 916.582 439.557 917.196 439.443C917.81 439.33 918.287 439.239 918.628 439.17L920.469 447.591C919.878 447.818 919.037 448.045 917.946 448.273C916.855 448.523 915.491 448.659 913.855 448.682C911.173 448.727 908.673 448.25 906.355 447.25C904.037 446.25 902.162 444.705 900.73 442.614C899.298 440.523 898.582 437.898 898.582 434.739V383.091ZM930.79 448V395.636H940.983V448H930.79ZM935.938 387.557C934.165 387.557 932.642 386.966 931.369 385.784C930.119 384.58 929.494 383.148 929.494 381.489C929.494 379.807 930.119 378.375 931.369 377.193C932.642 375.989 934.165 375.386 935.938 375.386C937.71 375.386 939.222 375.989 940.472 377.193C941.744 378.375 942.381 379.807 942.381 381.489C942.381 383.148 941.744 384.58 940.472 385.784C939.222 386.966 937.71 387.557 935.938 387.557ZM976.753 449.057C971.685 449.057 967.321 447.909 963.662 445.614C960.026 443.295 957.23 440.102 955.276 436.034C953.321 431.966 952.344 427.307 952.344 422.057C952.344 416.739 953.344 412.045 955.344 407.977C957.344 403.886 960.162 400.693 963.798 398.398C967.435 396.102 971.719 394.955 976.651 394.955C980.628 394.955 984.173 395.693 987.287 397.17C990.401 398.625 992.912 400.67 994.821 403.307C996.753 405.943 997.901 409.023 998.264 412.545H988.344C987.798 410.091 986.548 407.977 984.594 406.205C982.662 404.432 980.071 403.545 976.821 403.545C973.98 403.545 971.491 404.295 969.355 405.795C967.241 407.273 965.594 409.386 964.412 412.136C963.23 414.864 962.639 418.091 962.639 421.818C962.639 425.636 963.219 428.932 964.378 431.705C965.537 434.477 967.173 436.625 969.287 438.148C971.423 439.67 973.935 440.432 976.821 440.432C978.753 440.432 980.503 440.08 982.071 439.375C983.662 438.648 984.991 437.614 986.06 436.273C987.151 434.932 987.912 433.318 988.344 431.432H998.264C997.901 434.818 996.798 437.841 994.957 440.5C993.116 443.159 990.651 445.25 987.56 446.773C984.491 448.295 980.889 449.057 976.753 449.057ZM1073.81 408.42L1064.57 410.057C1064.18 408.875 1063.57 407.75 1062.73 406.682C1061.91 405.614 1060.8 404.739 1059.39 404.057C1057.98 403.375 1056.22 403.034 1054.11 403.034C1051.22 403.034 1048.81 403.682 1046.88 404.977C1044.95 406.25 1043.98 407.898 1043.98 409.92C1043.98 411.67 1044.63 413.08 1045.92 414.148C1047.22 415.216 1049.31 416.091 1052.2 416.773L1060.51 418.682C1065.33 419.795 1068.92 421.511 1071.29 423.83C1073.65 426.148 1074.83 429.159 1074.83 432.864C1074.83 436 1073.92 438.795 1072.11 441.25C1070.31 443.682 1067.8 445.591 1064.57 446.977C1061.37 448.364 1057.65 449.057 1053.42 449.057C1047.56 449.057 1042.78 447.807 1039.07 445.307C1035.37 442.784 1033.09 439.205 1032.25 434.568L1042.11 433.068C1042.72 435.636 1043.98 437.58 1045.89 438.898C1047.8 440.193 1050.29 440.841 1053.36 440.841C1056.7 440.841 1059.37 440.148 1061.37 438.761C1063.37 437.352 1064.37 435.636 1064.37 433.614C1064.37 431.977 1063.75 430.602 1062.53 429.489C1061.32 428.375 1059.47 427.534 1056.97 426.966L1048.11 425.023C1043.22 423.909 1039.61 422.136 1037.26 419.705C1034.95 417.273 1033.79 414.193 1033.79 410.466C1033.79 407.375 1034.65 404.67 1036.38 402.352C1038.11 400.034 1040.49 398.227 1043.54 396.932C1046.58 395.614 1050.07 394.955 1054 394.955C1059.66 394.955 1064.12 396.182 1067.37 398.636C1070.62 401.068 1072.76 404.33 1073.81 408.42ZM1108.61 449.057C1103.45 449.057 1099.01 447.955 1095.28 445.75C1091.57 443.523 1088.71 440.398 1086.69 436.375C1084.69 432.33 1083.69 427.591 1083.69 422.159C1083.69 416.795 1084.69 412.068 1086.69 407.977C1088.71 403.886 1091.53 400.693 1095.14 398.398C1098.78 396.102 1103.03 394.955 1107.89 394.955C1110.85 394.955 1113.71 395.443 1116.48 396.42C1119.26 397.398 1121.74 398.932 1123.95 401.023C1126.15 403.114 1127.89 405.83 1129.16 409.17C1130.44 412.489 1131.07 416.523 1131.07 421.273V424.886H1089.45V417.25H1121.09C1121.09 414.568 1120.54 412.193 1119.45 410.125C1118.36 408.034 1116.82 406.386 1114.85 405.182C1112.89 403.977 1110.6 403.375 1107.96 403.375C1105.1 403.375 1102.6 404.08 1100.46 405.489C1098.35 406.875 1096.71 408.693 1095.55 410.943C1094.41 413.17 1093.85 415.591 1093.85 418.205V424.17C1093.85 427.67 1094.46 430.648 1095.69 433.102C1096.94 435.557 1098.68 437.432 1100.9 438.727C1103.13 440 1105.73 440.636 1108.71 440.636C1110.64 440.636 1112.4 440.364 1113.99 439.818C1115.59 439.25 1116.96 438.409 1118.12 437.295C1119.28 436.182 1120.16 434.807 1120.78 433.17L1130.43 434.909C1129.65 437.75 1128.27 440.239 1126.27 442.375C1124.29 444.489 1121.8 446.136 1118.8 447.318C1115.82 448.477 1112.43 449.057 1108.61 449.057ZM1157.62 449.159C1154.3 449.159 1151.3 448.545 1148.62 447.318C1145.94 446.068 1143.82 444.261 1142.25 441.898C1140.7 439.534 1139.93 436.636 1139.93 433.205C1139.93 430.25 1140.5 427.818 1141.63 425.909C1142.77 424 1144.3 422.489 1146.24 421.375C1148.17 420.261 1150.33 419.42 1152.71 418.852C1155.1 418.284 1157.53 417.852 1160.01 417.557C1163.14 417.193 1165.69 416.898 1167.64 416.67C1169.6 416.42 1171.02 416.023 1171.91 415.477C1172.79 414.932 1173.24 414.045 1173.24 412.818V412.58C1173.24 409.602 1172.39 407.295 1170.71 405.659C1169.05 404.023 1166.58 403.205 1163.28 403.205C1159.85 403.205 1157.14 403.966 1155.17 405.489C1153.21 406.989 1151.86 408.659 1151.11 410.5L1141.53 408.318C1142.67 405.136 1144.33 402.568 1146.51 400.614C1148.71 398.636 1151.25 397.205 1154.11 396.318C1156.97 395.409 1159.99 394.955 1163.14 394.955C1165.24 394.955 1167.45 395.205 1169.79 395.705C1172.16 396.182 1174.36 397.068 1176.41 398.364C1178.47 399.659 1180.17 401.511 1181.49 403.92C1182.8 406.307 1183.46 409.409 1183.46 413.227V448H1173.51V440.841H1173.1C1172.44 442.159 1171.45 443.455 1170.13 444.727C1168.82 446 1167.12 447.057 1165.05 447.898C1162.99 448.739 1160.51 449.159 1157.62 449.159ZM1159.84 440.977C1162.66 440.977 1165.07 440.42 1167.07 439.307C1169.09 438.193 1170.62 436.739 1171.67 434.943C1172.74 433.125 1173.27 431.182 1173.27 429.114V422.364C1172.91 422.727 1172.2 423.068 1171.16 423.386C1170.13 423.682 1168.96 423.943 1167.64 424.17C1166.33 424.375 1165.04 424.568 1163.79 424.75C1162.54 424.909 1161.5 425.045 1160.66 425.159C1158.68 425.409 1156.87 425.83 1155.24 426.42C1153.62 427.011 1152.33 427.864 1151.35 428.977C1150.39 430.068 1149.92 431.523 1149.92 433.341C1149.92 435.864 1150.85 437.773 1152.71 439.068C1154.58 440.341 1156.95 440.977 1159.84 440.977ZM1197.04 448V395.636H1206.89V403.955H1207.44C1208.39 401.136 1210.07 398.92 1212.48 397.307C1214.91 395.67 1217.66 394.852 1220.73 394.852C1221.37 394.852 1222.12 394.875 1222.98 394.92C1223.87 394.966 1224.56 395.023 1225.06 395.091V404.841C1224.65 404.727 1223.93 404.602 1222.88 404.466C1221.84 404.307 1220.79 404.227 1219.74 404.227C1217.34 404.227 1215.19 404.739 1213.3 405.761C1211.44 406.761 1209.96 408.159 1208.87 409.955C1207.78 411.727 1207.23 413.75 1207.23 416.023V448H1197.04ZM1254.07 449.057C1249 449.057 1244.63 447.909 1240.97 445.614C1237.34 443.295 1234.54 440.102 1232.59 436.034C1230.63 431.966 1229.66 427.307 1229.66 422.057C1229.66 416.739 1230.66 412.045 1232.66 407.977C1234.66 403.886 1237.47 400.693 1241.11 398.398C1244.75 396.102 1249.03 394.955 1253.96 394.955C1257.94 394.955 1261.49 395.693 1264.6 397.17C1267.71 398.625 1270.22 400.67 1272.13 403.307C1274.07 405.943 1275.21 409.023 1275.58 412.545H1265.66C1265.11 410.091 1263.86 407.977 1261.91 406.205C1259.97 404.432 1257.38 403.545 1254.13 403.545C1251.29 403.545 1248.8 404.295 1246.67 405.795C1244.55 407.273 1242.91 409.386 1241.72 412.136C1240.54 414.864 1239.95 418.091 1239.95 421.818C1239.95 425.636 1240.53 428.932 1241.69 431.705C1242.85 434.477 1244.49 436.625 1246.6 438.148C1248.74 439.67 1251.25 440.432 1254.13 440.432C1256.07 440.432 1257.82 440.08 1259.38 439.375C1260.97 438.648 1262.3 437.614 1263.37 436.273C1264.46 434.932 1265.22 433.318 1265.66 431.432H1275.58C1275.21 434.818 1274.11 437.841 1272.27 440.5C1270.43 443.159 1267.96 445.25 1264.87 446.773C1261.8 448.295 1258.2 449.057 1254.07 449.057ZM1296.67 416.909V448H1286.48V378.182H1296.53V404.159H1297.18C1298.41 401.341 1300.28 399.102 1302.81 397.443C1305.33 395.784 1308.63 394.955 1312.69 394.955C1316.28 394.955 1319.42 395.693 1322.1 397.17C1324.81 398.648 1326.9 400.852 1328.38 403.784C1329.88 406.693 1330.62 410.33 1330.62 414.693V448H1320.43V415.92C1320.43 412.08 1319.44 409.102 1317.47 406.989C1315.49 404.852 1312.74 403.784 1309.22 403.784C1306.81 403.784 1304.65 404.295 1302.74 405.318C1300.85 406.341 1299.36 407.841 1298.27 409.818C1297.2 411.773 1296.67 414.136 1296.67 416.909ZM1394.55 395.636V403.818H1364.96V395.636H1394.55ZM1373.08 448V389.568C1373.08 386.295 1373.79 383.58 1375.22 381.42C1376.66 379.239 1378.55 377.614 1380.92 376.545C1383.28 375.455 1385.85 374.909 1388.62 374.909C1390.67 374.909 1392.42 375.08 1393.87 375.42C1395.33 375.739 1396.41 376.034 1397.11 376.307L1394.72 384.557C1394.25 384.42 1393.63 384.261 1392.88 384.08C1392.13 383.875 1391.22 383.773 1390.16 383.773C1387.68 383.773 1385.91 384.386 1384.84 385.614C1383.79 386.841 1383.27 388.614 1383.27 390.932V448H1373.08ZM1425.07 449.057C1420.16 449.057 1415.87 447.932 1412.21 445.682C1408.55 443.432 1405.71 440.284 1403.69 436.239C1401.67 432.193 1400.66 427.466 1400.66 422.057C1400.66 416.625 1401.67 411.875 1403.69 407.807C1405.71 403.739 1408.55 400.58 1412.21 398.33C1415.87 396.08 1420.16 394.955 1425.07 394.955C1429.97 394.955 1434.26 396.08 1437.92 398.33C1441.58 400.58 1444.42 403.739 1446.44 407.807C1448.46 411.875 1449.47 416.625 1449.47 422.057C1449.47 427.466 1448.46 432.193 1446.44 436.239C1444.42 440.284 1441.58 443.432 1437.92 445.682C1434.26 447.932 1429.97 449.057 1425.07 449.057ZM1425.1 440.5C1428.28 440.5 1430.92 439.659 1433.01 437.977C1435.1 436.295 1436.64 434.057 1437.64 431.261C1438.67 428.466 1439.18 425.386 1439.18 422.023C1439.18 418.682 1438.67 415.614 1437.64 412.818C1436.64 410 1435.1 407.739 1433.01 406.034C1430.92 404.33 1428.28 403.477 1425.1 403.477C1421.89 403.477 1419.24 404.33 1417.12 406.034C1415.03 407.739 1413.47 410 1412.45 412.818C1411.45 415.614 1410.95 418.682 1410.95 422.023C1410.95 425.386 1411.45 428.466 1412.45 431.261C1413.47 434.057 1415.03 436.295 1417.12 437.977C1419.24 439.659 1421.89 440.5 1425.1 440.5ZM1460.85 448V395.636H1470.7V403.955H1471.25C1472.2 401.136 1473.89 398.92 1476.3 397.307C1478.73 395.67 1481.48 394.852 1484.55 394.852C1485.18 394.852 1485.93 394.875 1486.8 394.92C1487.68 394.966 1488.38 395.023 1488.88 395.091V404.841C1488.47 404.727 1487.74 404.602 1486.69 404.466C1485.65 404.307 1484.6 404.227 1483.56 404.227C1481.15 404.227 1479 404.739 1477.11 405.761C1475.25 406.761 1473.77 408.159 1472.68 409.955C1471.59 411.727 1471.05 413.75 1471.05 416.023V448H1460.85ZM1547.55 395.636V403.818H1518.94V395.636H1547.55ZM1526.61 383.091H1536.81V432.625C1536.81 434.602 1537.1 436.091 1537.69 437.091C1538.28 438.068 1539.05 438.739 1539.98 439.102C1540.93 439.443 1541.97 439.614 1543.08 439.614C1543.9 439.614 1544.61 439.557 1545.23 439.443C1545.84 439.33 1546.32 439.239 1546.66 439.17L1548.5 447.591C1547.91 447.818 1547.07 448.045 1545.98 448.273C1544.89 448.523 1543.52 448.659 1541.89 448.682C1539.2 448.727 1536.7 448.25 1534.39 447.25C1532.07 446.25 1530.19 444.705 1528.76 442.614C1527.33 440.523 1526.61 437.898 1526.61 434.739V383.091ZM1580.83 449.057C1575.67 449.057 1571.22 447.955 1567.5 445.75C1563.79 443.523 1560.93 440.398 1558.91 436.375C1556.91 432.33 1555.91 427.591 1555.91 422.159C1555.91 416.795 1556.91 412.068 1558.91 407.977C1560.93 403.886 1563.75 400.693 1567.36 398.398C1571 396.102 1575.25 394.955 1580.11 394.955C1583.07 394.955 1585.93 395.443 1588.7 396.42C1591.47 397.398 1593.96 398.932 1596.17 401.023C1598.37 403.114 1600.11 405.83 1601.38 409.17C1602.66 412.489 1603.29 416.523 1603.29 421.273V424.886H1561.67V417.25H1593.3C1593.3 414.568 1592.76 412.193 1591.67 410.125C1590.58 408.034 1589.04 406.386 1587.07 405.182C1585.11 403.977 1582.82 403.375 1580.18 403.375C1577.32 403.375 1574.82 404.08 1572.68 405.489C1570.57 406.875 1568.93 408.693 1567.77 410.943C1566.63 413.17 1566.07 415.591 1566.07 418.205V424.17C1566.07 427.67 1566.68 430.648 1567.91 433.102C1569.16 435.557 1570.89 437.432 1573.12 438.727C1575.35 440 1577.95 440.636 1580.93 440.636C1582.86 440.636 1584.62 440.364 1586.21 439.818C1587.8 439.25 1589.18 438.409 1590.34 437.295C1591.5 436.182 1592.38 434.807 1593 433.17L1602.64 434.909C1601.87 437.75 1600.49 440.239 1598.49 442.375C1596.51 444.489 1594.02 446.136 1591.02 447.318C1588.04 448.477 1584.64 449.057 1580.83 449.057ZM1621.43 395.636L1632.99 416.023L1644.64 395.636H1655.79L1639.46 421.818L1655.93 448H1644.78L1632.99 428.432L1621.22 448H1610.04L1626.34 421.818L1610.25 395.636H1621.43ZM1690.7 395.636V403.818H1662.1V395.636H1690.7ZM1669.77 383.091H1679.96V432.625C1679.96 434.602 1680.26 436.091 1680.85 437.091C1681.44 438.068 1682.2 438.739 1683.13 439.102C1684.09 439.443 1685.12 439.614 1686.24 439.614C1687.05 439.614 1687.77 439.557 1688.38 439.443C1689 439.33 1689.47 439.239 1689.82 439.17L1691.66 447.591C1691.07 447.818 1690.22 448.045 1689.13 448.273C1688.04 448.523 1686.68 448.659 1685.04 448.682C1682.36 448.727 1679.86 448.25 1677.54 447.25C1675.22 446.25 1673.35 444.705 1671.92 442.614C1670.49 440.523 1669.77 437.898 1669.77 434.739V383.091ZM1746.99 449.023C1742.76 449.023 1738.99 447.943 1735.67 445.784C1732.37 443.602 1729.78 440.5 1727.89 436.477C1726.03 432.432 1725.1 427.58 1725.1 421.92C1725.1 416.261 1726.04 411.42 1727.93 407.398C1729.84 403.375 1732.45 400.295 1735.77 398.159C1739.09 396.023 1742.85 394.955 1747.05 394.955C1750.3 394.955 1752.92 395.5 1754.89 396.591C1756.89 397.659 1758.44 398.909 1759.53 400.341C1760.64 401.773 1761.51 403.034 1762.12 404.125H1762.74V378.182H1772.93V448H1762.97V439.852H1762.12C1761.51 440.966 1760.62 442.239 1759.46 443.67C1758.33 445.102 1756.76 446.352 1754.76 447.42C1752.76 448.489 1750.17 449.023 1746.99 449.023ZM1749.24 440.33C1752.17 440.33 1754.64 439.557 1756.67 438.011C1758.71 436.443 1760.26 434.273 1761.3 431.5C1762.37 428.727 1762.91 425.5 1762.91 421.818C1762.91 418.182 1762.38 415 1761.34 412.273C1760.29 409.545 1758.76 407.42 1756.74 405.898C1754.71 404.375 1752.21 403.614 1749.24 403.614C1746.17 403.614 1743.61 404.409 1741.57 406C1739.52 407.591 1737.97 409.761 1736.93 412.511C1735.91 415.261 1735.39 418.364 1735.39 421.818C1735.39 425.318 1735.92 428.466 1736.96 431.261C1738.01 434.057 1739.55 436.273 1741.6 437.909C1743.67 439.523 1746.21 440.33 1749.24 440.33ZM1802.72 449.159C1799.4 449.159 1796.4 448.545 1793.72 447.318C1791.03 446.068 1788.91 444.261 1787.34 441.898C1785.8 439.534 1785.02 436.636 1785.02 433.205C1785.02 430.25 1785.59 427.818 1786.73 425.909C1787.86 424 1789.4 422.489 1791.33 421.375C1793.26 420.261 1795.42 419.42 1797.81 418.852C1800.19 418.284 1802.63 417.852 1805.1 417.557C1808.24 417.193 1810.78 416.898 1812.74 416.67C1814.69 416.42 1816.11 416.023 1817 415.477C1817.89 414.932 1818.33 414.045 1818.33 412.818V412.58C1818.33 409.602 1817.49 407.295 1815.81 405.659C1814.15 404.023 1811.67 403.205 1808.38 403.205C1804.94 403.205 1802.24 403.966 1800.26 405.489C1798.31 406.989 1796.95 408.659 1796.2 410.5L1786.62 408.318C1787.76 405.136 1789.42 402.568 1791.6 400.614C1793.81 398.636 1796.34 397.205 1799.2 396.318C1802.07 395.409 1805.08 394.955 1808.24 394.955C1810.33 394.955 1812.55 395.205 1814.89 395.705C1817.25 396.182 1819.45 397.068 1821.5 398.364C1823.57 399.659 1825.26 401.511 1826.58 403.92C1827.9 406.307 1828.56 409.409 1828.56 413.227V448H1818.6V440.841H1818.19C1817.53 442.159 1816.55 443.455 1815.23 444.727C1813.91 446 1812.22 447.057 1810.15 447.898C1808.08 448.739 1805.6 449.159 1802.72 449.159ZM1804.93 440.977C1807.75 440.977 1810.16 440.42 1812.16 439.307C1814.18 438.193 1815.72 436.739 1816.76 434.943C1817.83 433.125 1818.36 431.182 1818.36 429.114V422.364C1818 422.727 1817.3 423.068 1816.25 423.386C1815.23 423.682 1814.06 423.943 1812.74 424.17C1811.42 424.375 1810.14 424.568 1808.89 424.75C1807.64 424.909 1806.59 425.045 1805.75 425.159C1803.77 425.409 1801.97 425.83 1800.33 426.42C1798.72 427.011 1797.42 427.864 1796.44 428.977C1795.49 430.068 1795.01 431.523 1795.01 433.341C1795.01 435.864 1795.94 437.773 1797.81 439.068C1799.67 440.341 1802.05 440.977 1804.93 440.977ZM1866.58 395.636V403.818H1837.97V395.636H1866.58ZM1845.64 383.091H1855.84V432.625C1855.84 434.602 1856.13 436.091 1856.72 437.091C1857.32 438.068 1858.08 438.739 1859.01 439.102C1859.96 439.443 1861 439.614 1862.11 439.614C1862.93 439.614 1863.64 439.557 1864.26 439.443C1864.87 439.33 1865.35 439.239 1865.69 439.17L1867.53 447.591C1866.94 447.818 1866.1 448.045 1865.01 448.273C1863.92 448.523 1862.55 448.659 1860.92 448.682C1858.24 448.727 1855.74 448.25 1853.42 447.25C1851.1 446.25 1849.22 444.705 1847.79 442.614C1846.36 440.523 1845.64 437.898 1845.64 434.739V383.091ZM1893.09 449.159C1889.77 449.159 1886.77 448.545 1884.09 447.318C1881.41 446.068 1879.28 444.261 1877.72 441.898C1876.17 439.534 1875.4 436.636 1875.4 433.205C1875.4 430.25 1875.97 427.818 1877.1 425.909C1878.24 424 1879.77 422.489 1881.7 421.375C1883.64 420.261 1885.8 419.42 1888.18 418.852C1890.57 418.284 1893 417.852 1895.48 417.557C1898.61 417.193 1901.16 416.898 1903.11 416.67C1905.07 416.42 1906.49 416.023 1907.38 415.477C1908.26 414.932 1908.7 414.045 1908.7 412.818V412.58C1908.7 409.602 1907.86 407.295 1906.18 405.659C1904.52 404.023 1902.05 403.205 1898.75 403.205C1895.32 403.205 1892.61 403.966 1890.64 405.489C1888.68 406.989 1887.33 408.659 1886.58 410.5L1877 408.318C1878.14 405.136 1879.8 402.568 1881.98 400.614C1884.18 398.636 1886.72 397.205 1889.58 396.318C1892.44 395.409 1895.45 394.955 1898.61 394.955C1900.7 394.955 1902.92 395.205 1905.26 395.705C1907.63 396.182 1909.83 397.068 1911.88 398.364C1913.94 399.659 1915.64 401.511 1916.95 403.92C1918.27 406.307 1918.93 409.409 1918.93 413.227V448H1908.98V440.841H1908.57C1907.91 442.159 1906.92 443.455 1905.6 444.727C1904.28 446 1902.59 447.057 1900.52 447.898C1898.45 448.739 1895.98 449.159 1893.09 449.159ZM1895.31 440.977C1898.13 440.977 1900.53 440.42 1902.53 439.307C1904.56 438.193 1906.09 436.739 1907.14 434.943C1908.2 433.125 1908.74 431.182 1908.74 429.114V422.364C1908.38 422.727 1907.67 423.068 1906.62 423.386C1905.6 423.682 1904.43 423.943 1903.11 424.17C1901.8 424.375 1900.51 424.568 1899.26 424.75C1898.01 424.909 1896.97 425.045 1896.12 425.159C1894.15 425.409 1892.34 425.83 1890.7 426.42C1889.09 427.011 1887.8 427.864 1886.82 428.977C1885.86 430.068 1885.39 431.523 1885.39 433.341C1885.39 435.864 1886.32 437.773 1888.18 439.068C1890.05 440.341 1892.42 440.977 1895.31 440.977Z" fill="#CCCCCC" fill-opacity="0.7"/>
<defs>
<radialGradient id="paint0_radial_20_2" cx="0" cy="0" r="1" gradientUnits="userSpaceOnUse" gradientTransform="translate(345.5 262.5) rotate(90) scale(43.5)">
<stop offset="0.807692" stop-color="white"/>
<stop offset="1" stop-color="#BBBBBB" stop-opacity="0.5"/>
</radialGradient>
</defs>
</svg>
